# xmcd
#
# Track frame offsets: 
#        150
#        17122
#        38095
#        43385
#        61460
#        64610
#        74412
#        76780
#        89840
#        92660
#        105692
#        121057
#        126217
#        141730
#        157032
#        158940
#        177197
#        180385
#        200817
#        202482
#
# Disc length: 2900 seconds
#
# Revision: 0
# Processed by: cddbd v1.5.2PL0 Copyright (c) Steve Scherf et al.
# Submitted via: ExactAudioCopy v0.95b4
#
DISCID=2f0b5214
DTITLE=Alan Simon - Caradec
DYEAR=1992
DGENRE=Chanson
TTITLE0=MA PETITE FILLE DE REVE
TTITLE1=LA LIBERTE
TTITLE2=Nuit Jazz
TTITLE3=C'EST RAPE
TTITLE4=Amour d'enfance
TTITLE5=BERCEUSE
TTITLE6=L'espoir 
TTITLE7=LA COURSE AU SOLEIL
TTITLE8=Mur de Partage
TTITLE9=LES DEUX HEMISPHERES
TTITLE10=PORTSALL
TTITLE11=Les Roses et l'univers
TTITLE12=MA BRETAGNE QUAND ELLE PLEUT
TTITLE13=DE VOTRE AGE
TTITLE14=Le démon de la danse
TTITLE15=LES OISEAUX VOLENT A L'ENVERS
TTITLE16=La cour déserte
TTITLE17=PAS EN FRANCE
TTITLE18=Mourir
TTITLE19=ILE (instrumental)
EXTD=
EXTT0=
EXTT1=
EXTT2=
EXTT3=
EXTT4=
EXTT5=
EXTT6=
EXTT7=
EXTT8=
EXTT9=
EXTT10=
EXTT11=
EXTT12=
EXTT13=
EXTT14=
EXTT15=
EXTT16=
EXTT17=
EXTT18=
EXTT19=
PLAYORDER=
